<svg xmlns="http://www.w3.org/2000/svg" width="375" height="113" viewBox="0 0 375 112.5" preserveAspectRatio="xMidYMid meet">
  <defs>
    <clipPath id="clip1">
      <path d="M 135 3 L 242 3 L 242 112 L 135 112 Z"/>
    </clipPath>
    <clipPath id="clip2">
      <path d="M 31.046875 0.128906 L 89.089844 0.128906 L 89.089844 61 L 31.046875 61 Z"/>
    </clipPath>
    <clipPath id="clip3">
      <path d="M 31.046875 66 L 47 66 L 47 81.816406 L 31.046875 81.816406 Z"/>
    </clipPath>
    <clipPath id="clip4">
      <path d="M 0.828125 84 L 106.203125 84 L 106.203125 109 L 0.828125 109 Z"/>
    </clipPath>
  </defs>
  <g clip-path="url(#clip1)">
    <g transform="matrix(1, 0, 0, 1, 135, 3)">
      <g>
        <g clip-path="url(#clip2)">
          <path fill="currentColor" d="M 62.21875 0.136719 L 39.035156 0.136719 C 34.65625 0.136719 31.105469 3.628906 31.105469 7.933594 L 31.105469 60.890625 C 33.425781 59.53125 36.128906 58.734375 39.023438 58.734375 C 41.925781 58.734375 44.636719 59.535156 46.964844 60.902344 L 46.964844 52.902344 L 62.21875 52.902344 C 77.011719 52.902344 89.042969 41.066406 89.042969 26.519531 C 89.042969 11.96875 77.011719 0.136719 62.21875 0.136719 Z M 62.21875 37.300781 L 46.964844 37.300781 L 46.964844 15.734375 L 62.21875 15.734375 C 68.265625 15.734375 73.183594 20.570312 73.183594 26.519531 C 73.183594 32.464844 68.265625 37.300781 62.21875 37.300781 Z"/>
        </g>
        <g clip-path="url(#clip3)">
          <path fill="currentColor" d="M 39.023438 81.824219 C 34.65625 81.824219 31.105469 78.328125 31.105469 74.03125 C 31.105469 69.738281 34.65625 66.242188 39.023438 66.242188 C 43.390625 66.242188 46.945312 69.738281 46.945312 74.03125 C 46.945312 78.328125 43.390625 81.824219 39.023438 81.824219 Z"/>
        </g>
        <g clip-path="url(#clip4)">
          <g fill="currentColor">
            <g transform="translate(1.257365, 106.96376)">
              <path d="M 6.703125 -14.75 C 8.566406 -14.75 9.960938 -14.34375 10.890625 -13.53125 C 11.828125 -12.71875 12.296875 -11.5625 12.296875 -10.0625 C 12.296875 -9.382812 12.195312 -8.734375 12 -8.109375 C 11.8125 -7.492188 11.5 -6.941406 11.0625 -6.453125 C 10.632812 -5.972656 10.0625 -5.59375 9.34375 -5.3125 C 8.625 -5.03125 7.742188 -4.890625 6.703125 -4.890625 L 5.578125 -4.890625 L 5.578125 0 L 1.59375 0 L 1.59375 -14.75 Z M 6.609375 -11.53125 L 5.578125 -11.53125 L 5.578125 -8.140625 L 6.359375 -8.140625 C 6.703125 -8.140625 7.019531 -8.195312 7.3125 -8.3125 C 7.613281 -8.4375 7.851562 -8.628906 8.03125 -8.890625 C 8.207031 -9.160156 8.296875 -9.515625 8.296875 -9.953125 C 8.296875 -10.421875 8.15625 -10.800781 7.875 -11.09375 C 7.601562 -11.382812 7.179688 -11.53125 6.609375 -11.53125 Z"/>
            </g>
            <g transform="translate(16.351096, 106.96376)">
              <path d="M 1.59375 0 L 1.59375 -14.75 L 5.578125 -14.75 L 5.578125 -3.21875 L 11.25 -3.21875 L 11.25 0 Z"/>
            </g>
            <g transform="translate(30.416254, 106.96376)">
              <path d="M 10.640625 0 L 9.921875 -2.765625 L 5.125 -2.765625 L 4.375 0 L 0 0 L 4.8125 -14.8125 L 10.125 -14.8125 L 15 0 Z M 9.09375 -6.03125 L 8.453125 -8.453125 C 8.378906 -8.710938 8.28125 -9.085938 8.15625 -9.578125 C 8.03125 -10.066406 7.90625 -10.570312 7.78125 -11.09375 C 7.65625 -11.613281 7.5625 -12.039062 7.5 -12.375 C 7.4375 -12.039062 7.347656 -11.625 7.234375 -11.125 C 7.128906 -10.632812 7.015625 -10.144531 6.890625 -9.65625 C 6.773438 -9.175781 6.675781 -8.773438 6.59375 -8.453125 L 5.953125 -6.03125 Z"/>
            </g>
            <g transform="translate(47.456205, 106.96376)">
              <path d="M 1.59375 0 L 1.59375 -14.75 L 5.59375 -14.75 L 5.59375 0 Z"/>
            </g>
            <g transform="translate(56.691106, 106.96376)">
              <path d="M 15.640625 0 L 10.40625 0 L 5.015625 -10.390625 L 4.9375 -10.390625 C 4.96875 -10.078125 4.992188 -9.695312 5.015625 -9.25 C 5.046875 -8.800781 5.070312 -8.347656 5.09375 -7.890625 C 5.113281 -7.429688 5.125 -7.015625 5.125 -6.640625 L 5.125 0 L 1.59375 0 L 1.59375 -14.75 L 6.796875 -14.75 L 12.15625 -4.5 L 12.21875 -4.5 C 12.195312 -4.820312 12.175781 -5.195312 12.15625 -5.625 C 12.144531 -6.050781 12.128906 -6.484375 12.109375 -6.921875 C 12.085938 -7.359375 12.078125 -7.742188 12.078125 -8.078125 L 12.078125 -14.75 L 15.640625 -14.75 Z"/>
            </g>
            <g transform="translate(75.959631, 106.96376)">
              <path d="M 1.59375 0 L 1.59375 -14.75 L 5.578125 -14.75 L 5.578125 -3.21875 L 11.25 -3.21875 L 11.25 0 Z"/>
            </g>
            <g transform="translate(90.02479, 106.96376)">
              <path d="M 6.859375 -9.28125 L 9.40625 -14.75 L 13.71875 -14.75 L 8.859375 -5.765625 L 8.859375 0 L 4.84375 0 L 4.84375 -5.640625 L 0 -14.75 L 4.34375 -14.75 Z"/>
            </g>
          </g>
        </g>
      </g>
    </g>
  </g>
</svg>